<?xml version="1.0" standalone="no"?>
<!DOCTYPE svg PUBLIC "-//W3C//DTD SVG 20010904//EN"
 "http://www.w3.org/TR/2001/REC-SVG-20010904/DTD/svg10.dtd">
<svg version="1.0" xmlns="http://www.w3.org/2000/svg"
 width="2953.000000pt" height="2953.000000pt" viewBox="0 0 2953.000000 2953.000000"
 preserveAspectRatio="xMidYMid meet">
<metadata>
Created by potrace 1.11, written by Peter Selinger 2001-2013
</metadata>
<g transform="translate(0.000000,2953.000000) scale(0.100000,-0.100000)"
fill="#000000" stroke="none">
<path d="M1345 17784 c-9 -9 -192 -290 -405 -619 -30 -47 -125 -192 -210 -323
-85 -130 -203 -311 -262 -402 -59 -91 -111 -169 -115 -175 -5 -5 -12 -17 -16
-25 -4 -8 -33 -54 -64 -102 -32 -48 -106 -162 -166 -253 l-107 -165 0 -980 0
-980 86 1 c47 1 87 -1 90 -4 3 -3 -12 -38 -34 -78 -21 -41 -62 -119 -91 -175
l-51 -101 0 -836 0 -837 1478 0 1479 0 104 117 c57 65 111 125 119 133 8 9 49
54 90 100 41 47 98 110 125 140 28 31 77 86 110 123 33 38 86 96 117 130 32
34 58 65 58 70 0 4 3 7 8 7 4 0 6 -184 4 -410 l-3 -410 1312 0 1312 0 57 58
c32 31 264 260 515 507 252 248 465 458 474 468 8 9 18 17 21 17 3 0 6 -235 5
-522 l0 -523 10980 0 10980 0 90 310 90 310 3 2720 2 2720 -1297 -2 c-714 -1
-1303 -2 -1309 -2 -12 -1 -110 -97 -720 -700 -193 -192 -355 -350 -360 -354
-5 -3 -9 206 -9 520 0 308 -4 527 -9 531 -12 7 -2630 7 -2642 -1 -5 -3 -61
-85 -124 -181 -195 -299 -375 -575 -456 -701 -94 -145 -214 -329 -316 -485
-41 -63 -159 -244 -261 -402 l-187 -287 -2 -786 c-1 -432 -5 -785 -8 -786 -3
0 -281 -1 -618 -2 -538 -2 -612 0 -613 13 0 8 -1 826 -1 1818 l-1 1802 -26 1
c-40 1 -4370 1 -4416 0 -38 -1 -42 -5 -80 -64 -21 -34 -94 -145 -160 -247 -67
-102 -143 -219 -170 -260 -27 -41 -94 -145 -150 -230 -56 -85 -133 -204 -172
-265 -40 -60 -75 -114 -80 -120 -5 -5 -33 -48 -63 -95 -95 -149 -201 -310
-204 -310 -2 0 -3 356 -3 790 0 435 -3 793 -7 797 -3 3 -1421 6 -3150 6
l-3145 0 -318 -316 c-371 -368 -712 -704 -741 -730 l-20 -18 1 530 c1 348 -1
531 -8 532 -13 1 -2575 1 -2596 0 -15 -1 -238 -222 -873 -864 l-216 -219 0
541 c0 298 -3 541 -7 542 -5 0 -599 1 -1322 2 -952 2 -1318 -1 -1326 -9z"/>
</g>
</svg>
