<svg version="1.0" xmlns="http://www.w3.org/2000/svg" width="3937.333" height="3937.333" viewBox="0 0 2953 2953"><path d="M134.5 1174.6c-.9.9-19.2 29-40.5 61.9-3 4.7-12.5 19.2-21 32.3-8.5 13-20.3 31.1-26.2 40.2-5.9 9.1-11.1 16.9-11.5 17.5-.5.5-1.2 1.7-1.6 2.5-.4.8-3.3 5.4-6.4 10.2-3.2 4.8-10.6 16.2-16.6 25.3L0 1381v196l8.6-.1c4.7-.1 8.7.1 9 .4.3.3-1.2 3.8-3.4 7.8-2.1 4.1-6.2 11.9-9.1 17.5L0 1612.7V1780h295.7l10.4-11.7c5.7-6.5 11.1-12.5 11.9-13.3.8-.9 4.9-5.4 9-10 4.1-4.7 9.8-11 12.5-14 2.8-3.1 7.7-8.6 11-12.3 3.3-3.8 8.6-9.6 11.7-13 3.2-3.4 5.8-6.5 5.8-7 0-.4.3-.7.8-.7.4 0 .6 18.4.4 41l-.3 41h262.4l5.7-5.8c3.2-3.1 26.4-26 51.5-50.7 25.2-24.8 46.5-45.8 47.4-46.8.8-.9 1.8-1.7 2.1-1.7.3 0 .6 23.5.5 52.2v52.3h2196l9-31 9-31 .3-272 .2-272-129.7.2c-71.4.1-130.3.2-130.9.2-1.2.1-11 9.7-72 70-19.3 19.2-35.5 35-36 35.4-.5.3-.9-20.6-.9-52 0-30.8-.4-52.7-.9-53.1-1.2-.7-263-.7-264.2.1-.5.3-6.1 8.5-12.4 18.1-19.5 29.9-37.5 57.5-45.6 70.1-9.4 14.5-21.4 32.9-31.6 48.5-4.1 6.3-15.9 24.4-26.1 40.2l-18.7 28.7-.2 78.6c-.1 43.2-.5 78.5-.8 78.6-.3 0-28.1.1-61.8.2-53.8.2-61.2 0-61.3-1.3 0-.8-.1-82.6-.1-181.8l-.1-180.2-2.6-.1c-4-.1-437-.1-441.6 0-3.8.1-4.2.5-8 6.4-2.1 3.4-9.4 14.5-16 24.7-6.7 10.2-14.3 21.9-17 26-2.7 4.1-9.4 14.5-15 23s-13.3 20.4-17.2 26.5c-4 6-7.5 11.4-8 12-.5.5-3.3 4.8-6.3 9.5-9.5 14.9-20.1 31-20.4 31-.2 0-.3-35.6-.3-79 0-43.5-.3-79.3-.7-79.7-.3-.3-142.1-.6-315-.6H877.1l-31.8 31.6c-37.1 36.8-71.2 70.4-74.1 73l-2 1.8.1-53c.1-34.8-.1-53.1-.8-53.2-1.3-.1-257.5-.1-259.6 0-1.5.1-23.8 22.2-87.3 86.4l-21.6 21.9v-54.1c0-29.8-.3-54.1-.7-54.2-.5 0-59.9-.1-132.2-.2-95.2-.2-131.8.1-132.6.9z"/></svg>