<svg version="1.1" id="Logo" xmlns="http://www.w3.org/2000/svg" x="0" y="0" viewBox="0 0 708.7 145.5" xml:space="preserve"><style>.st0{fill:#fffffe;stroke:#fff;stroke-width:1.000000e-03}</style><path id="musta" d="M646 0l-26 25.7V0h-63.6l-32.2 49.5-.1 37.8h-29.8V0H386.9l-25.2 38.6V0H210.6l-26 25.7V0h-62.8L96 26.1V0H32.4L0 49.8v46.9h4.5L0 105.4v40.1h70.9l17.8-19.9-.1 19.9h62.8l25.9-25.5-.1 25.5h527l4.5-15.9V0z"/><path id="n" class="st0" d="M621.9 39.4v91.1h32.6V43.2h12.2v87.3h32.7V15.1h-52.8z"/><path id="a_1_" class="st0" d="M610.4 130.5l.3-89.5V15.1H558l-24.7 38v77.4h32.6V81.6h12.3v48.8h32.2v.1zm-44.5-68.9l12.3-23.7v23.7h-12.3z"/><path id="l" class="st0" d="M452.4 15.1v115.4h69.4l.1-28.1H485V15.1z"/><path id="a" class="st0" d="M441.2 130.5V15h-52.8l-24.7 38v77.4h32.6V81.6h12.3v48.8h32.6v.1zm-32.5-68.9h-12.3l12.3-23.7v23.7z"/><path id="k" class="st0" d="M352.4 15.1h-32.5v35l-12.2 12.1V15.1h-32.5v115.4h32.5V84.1h12.2v46.4h32.4l.1-58.4h-17.9L352.4 54z"/><path id="n_1_" class="st0" d="M264 130.5V15.1h-52.8l-24.7 24.3v91.1h32.6V43.2h12.2v87.3z"/><path id="o" class="st0" d="M97.9 130.5h52.8l24.7-24.3V15.1h-52.8L97.9 39.9v90.6zm32.7-87.3h12.2v59.2h-12.2V43.2z"/><path id="s" class="st0" d="M86.7 43.2V15.1H34L9.3 53v28.6h49v22.9h-49v26h60.6L86.5 112V61.6H41V43.2z"/></svg>