<?xml version="1.0" encoding="utf-8"?>
<!-- Generator: Adobe Illustrator 23.0.1, SVG Export Plug-In . SVG Version: 6.00 Build 0)  -->
<svg version="1.1" id="Logo" xmlns="http://www.w3.org/2000/svg" xmlns:xlink="http://www.w3.org/1999/xlink" x="0px" y="0px"
	 viewBox="0 0 708.7 145.5" style="enable-background:new 0 0 708.7 145.5;" xml:space="preserve">
<style type="text/css">
	.st0{fill:#FFFFFE;stroke:#FFFFFF;stroke-width:1.000000e-03;}
</style>
<polygon id="musta" points="646,0 620,25.7 620,0 556.4,0 524.2,49.5 524.1,87.3 494.3,87.3 494.3,0 450.5,0 447.6,0 386.9,0 
	361.7,38.6 361.7,0 273.3,0 270.3,0 210.6,0 184.6,25.7 184.6,0 121.8,0 96,26.1 96,0 32.4,0 0,49.8 0,96.7 4.5,96.7 0,105.4 
	0,145.5 70.9,145.5 88.7,125.6 88.6,145.5 151.4,145.5 177.3,120 177.2,145.5 265.9,145.5 268.8,145.5 354.5,145.5 357.3,145.5 
	443.1,145.5 446.1,145.5 524,145.5 526.8,145.5 612.6,145.5 615.6,145.5 704.2,145.5 708.7,129.6 708.7,0 "/>
<polygon id="n" class="st0" points="621.9,39.4 621.9,130.5 654.5,130.5 654.5,43.2 666.7,43.2 666.7,130.5 699.4,130.5 699.4,15.1 
	646.6,15.1 "/>
<path id="a_1_" class="st0" d="M610.4,130.5l0.3-89.5v-0.2V15.1H558l-24.7,38v77.4h32.6V81.6h12.3v48.8h32.2V130.5z M565.9,61.6
	l12.3-23.7v23.7H565.9z"/>
<polygon id="l" class="st0" points="452.4,15.1 452.4,130.5 521.8,130.5 521.9,102.4 485,102.4 485,15.1 "/>
<path id="a" class="st0" d="M441.2,130.5V23.9v-1.2V15h-52.8l-24.7,38v77.4h32.6V81.6h12.3v48.8h32.6V130.5z M408.7,61.6h-12.3
	l12.3-23.7V61.6z"/>
<polygon id="k" class="st0" points="352.4,15.1 319.9,15.1 319.9,50.1 307.7,62.2 307.7,15.1 275.2,15.1 275.2,130.5 307.7,130.5 
	307.7,84.1 319.9,84.1 319.9,130.5 352.3,130.5 352.4,72.1 334.5,72.1 352.4,54 "/>
<polygon id="n_1_" class="st0" points="264,130.5 264,23.9 264,22.7 264,15.1 211.2,15.1 186.5,39.4 186.5,130.5 219.1,130.5 
	219.1,43.2 231.3,43.2 231.3,130.5 "/>
<path id="o" class="st0" d="M97.9,130.5h52.8l24.7-24.3V40.9v-0.2V15.1h-52.8L97.9,39.9V130.5z M130.6,43.2h12.2v59.2h-12.2V43.2z"
	/>
<polygon id="s" class="st0" points="86.7,43.2 86.7,41.4 86.7,41.2 86.7,15.1 34,15.1 9.3,53 9.3,81.6 58.3,81.6 58.3,104.5 
	9.3,104.5 9.3,130.5 69.9,130.5 86.5,112 86.5,61.6 41,61.6 41,43.2 "/>
</svg>
